<svg xmlns="http://www.w3.org/2000/svg" xmlns:xlink="http://www.w3.org/1999/xlink" fill="none" version="1.1" width="16" height="16" viewBox="0 0 16 16"><defs><clipPath id="master_svg0_166_19913"><rect x="0" y="0" width="16" height="16" rx="0"/></clipPath></defs><g clip-path="url(#master_svg0_166_19913)"><g transform="matrix(1,0,0,-1,0,30.6875)"><g><path d="M14,27.34375L14,23.34375L14,27.34375L14,23.34375L9,23.34375L9,27.34375L14,27.34375ZM14,21.34375L14,17.34375L14,21.34375L14,17.34375L9,17.34375L9,21.34375L14,21.34375ZM7,23.34375L2,23.34375L7,23.34375L2,23.34375L2,27.34375L7,27.34375L7,23.34375ZM2,21.34375L7,21.34375L2,21.34375L7,21.34375L7,17.34375L2,17.34375L2,21.34375ZM2,29.34375Q1.15625,29.31255,0.59375,28.74995Q0.03125,28.18755,0,27.34375L0,17.34375Q0.03125,16.5,0.59375,15.9375Q1.15625,15.375,2,15.34375L14,15.34375Q14.8438,15.375,15.4062,15.9375Q15.9688,16.5,16,17.34375L16,27.34375Q15.9688,28.18755,15.4062,28.74995Q14.8438,29.31255,14,29.34375L2,29.34375Z" fill="#4B5563" fill-opacity="1" style="mix-blend-mode:passthrough"/></g></g></g></svg>